<svg id="visual" viewBox="0 0 960 100" width="960" height="100" xmlns="http://www.w3.org/2000/svg" xmlns:xlink="http://www.w3.org/1999/xlink" version="1.1"><path d="M0 66L17.8 62.3C35.7 58.7 71.3 51.3 106.8 51.3C142.3 51.3 177.7 58.7 213.2 62C248.7 65.3 284.3 64.7 320 60.8C355.7 57 391.3 50 426.8 48.2C462.3 46.3 497.7 49.7 533.2 53.2C568.7 56.7 604.3 60.3 640 62.3C675.7 64.3 711.3 64.7 746.8 59.5C782.3 54.3 817.7 43.7 853.2 42.5C888.7 41.3 924.3 49.7 942.2 53.8L960 58L960 0L942.2 0C924.3 0 888.7 0 853.2 0C817.7 0 782.3 0 746.8 0C711.3 0 675.7 0 640 0C604.3 0 568.7 0 533.2 0C497.7 0 462.3 0 426.8 0C391.3 0 355.7 0 320 0C284.3 0 248.7 0 213.2 0C177.7 0 142.3 0 106.8 0C71.3 0 35.7 0 17.8 0L0 0Z" fill="#fd7341" stroke-linecap="round" stroke-linejoin="miter"></path></svg>